<svg xmlns="http://www.w3.org/2000/svg" version="1.1" xmlns:xlink="http://www.w3.org/1999/xlink" xmlns:svgjs="http://svgjs.dev/svgjs" width="1000" height="1000" viewBox="0 0 1000 1000"><rect width="1000" height="1000" fill="#000000"></rect><g transform="matrix(0.7,0,0,0.7,149.84897959183667,150.19913061224486)"><svg viewBox="0 0 343 343" data-background-color="#ffffff" preserveAspectRatio="xMidYMid meet" height="999" width="1000" xmlns="http://www.w3.org/2000/svg" xmlns:xlink="http://www.w3.org/1999/xlink"><g id="tight-bounds" transform="matrix(1,0,0,1,0.0740000000000407,0.07400000000001228)"><svg viewBox="0 0 342.85155851775386 342.85155851775386" height="342.85155851775386" width="342.85155851775386"><g><svg></svg></g><g><svg viewBox="0 0 342.85155851775386 342.85155851775386" height="342.85155851775386" width="342.85155851775386"><g><path d="M0 171.426c0-94.676 76.75-171.426 171.426-171.426 94.676 0 171.426 76.75 171.426 171.426 0 94.676-76.75 171.426-171.426 171.426-94.676 0-171.426-76.75-171.426-171.426zM171.426 339.022c92.561 0 167.596-75.035 167.596-167.596 0-92.561-75.035-167.596-167.596-167.596-92.561 0-167.596 75.035-167.596 167.596 0 92.561 75.035 167.596 167.596 167.596z" data-fill-palette-color="tertiary" fill="#ffffff" stroke="transparent"></path><ellipse rx="164.56874808852186" ry="164.56874808852186" cx="171.42577925887693" cy="171.42577925887693" fill="#ffffff" stroke="transparent" stroke-width="0" fill-opacity="1" data-fill-palette-color="tertiary"></ellipse></g><g transform="matrix(1,0,0,1,64.84655864529837,84.66536417347928)"><svg viewBox="0 0 213.1584412271571 173.5208301707953" height="173.5208301707953" width="213.1584412271571"><g><svg viewBox="0 0 213.1584412271571 173.5208301707953" height="173.5208301707953" width="213.1584412271571"><g><svg viewBox="0 0 213.1584412271571 173.5208301707953" height="173.5208301707953" width="213.1584412271571"><g transform="matrix(1,0,0,1,0,104.88312853142207)"><svg viewBox="0 0 213.1584412271571 68.63770163937323" height="68.63770163937323" width="213.1584412271571"><g id="textblocktransform"><svg viewBox="0 0 213.1584412271571 68.63770163937323" height="68.63770163937323" width="213.1584412271571" id="textblock"><g><svg viewBox="0 0 213.1584412271571 42.468632414172816" height="42.468632414172816" width="213.1584412271571"><g transform="matrix(1,0,0,1,0,0)"><svg width="213.1584412271571" viewBox="-1.100000023841858 -55.400001525878906 287.57000732421875 57.30000305175781" height="42.468632414172816" data-palette-color="#ffffff"><path d="M28.95-2.35Q29.2-1.4 29.2 1.9L29.2 1.9 28.5 1.75Q28.4 0.8 28.15 0.48 27.9 0.15 27.3-0.05L27.3-0.05Q26.05-0.45 23-0.68 19.95-0.9 16.1-0.9L16.1-0.9Q11.15-0.9 6.95-0.5 2.75-0.1 0.15 0.65L0.15 0.65Q-0.2 0.65-0.65-0.13-1.1-0.9-1.1-1.45L-1.1-1.45Q-1.1-1.65-1-1.73-0.9-1.8-0.65-1.85L-0.65-1.85Q1.75-2.25 3.53-3.33 5.3-4.4 7.2-8.2 9.1-12 10.6-19.6L10.6-19.6Q12.4-28.7 13.4-33.6L13.4-33.6Q13.55-34.25 13.78-34.55 14-34.85 14.45-35L14.45-35Q15.75-35.55 17.75-35.88 19.75-36.2 21.85-36.2L21.85-36.2Q22.15-36.15 22.4-35.6 22.65-35.05 22.75-34.48 22.85-33.9 22.75-33.8L22.75-33.8Q22.25-33.95 21.2-34.02 20.15-34.1 19.45-34.1L19.45-34.1Q17.7-34.1 16.93-33.35 16.15-32.6 15.85-31.25L15.85-31.25Q15.1-27.9 14.5-24.8L14.5-24.8Q13.25-18.8 12.6-16.25L12.6-16.25Q11.15-10.4 9.35-7.05 7.55-3.7 4.75-2.2L4.75-2.2Q6.35-2.3 8.8-2.55 11.25-2.8 12.65-2.9L12.65-2.9Q16.75-3.35 19.43-3.58 22.1-3.8 24.3-3.8L24.3-3.8Q26.7-3.8 27.7-3.48 28.7-3.15 28.95-2.35L28.95-2.35ZM63.75-11.55Q64.4-11.55 64.4-10.25L64.4-10.25Q64.4-7.95 62.37-5.4 60.35-2.85 57.47-1.13 54.6 0.6 52.2 0.6L52.2 0.6Q50.25 0.6 49.2-0.6 48.15-1.8 47.95-3.7L47.95-3.7Q46.7-1.9 44.8-0.75 42.9 0.4 41.4 0.4L41.4 0.4Q40.1 0.4 38.82-0.48 37.55-1.35 36.75-2.63 35.95-3.9 35.9-5.05L35.9-5.05 38.35-15.15Q38.65-16.35 39.87-17.73 41.1-19.1 42.85-20 44.6-20.9 46.4-20.9L46.4-20.9Q48.7-20.9 50.45-19.35L50.45-19.35Q50.9-20.55 51.12-20.85 51.35-21.15 51.8-21.2L51.8-21.2 54.25-21.45 54.4-21.35Q53.4-20.55 52.95-18.85L52.95-18.85Q51.4-13.05 50.82-10.3 50.25-7.55 50.25-5.45L50.25-5.45Q50.25-3.35 50.8-2.38 51.35-1.4 52.65-1.4L52.65-1.4Q54.25-1.4 56.47-2.7 58.7-4 60.7-6.33 62.7-8.65 63.75-11.55L63.75-11.55ZM41.6-1.95Q42.45-1.95 43.67-2.55 44.9-3.15 45.97-4.28 47.05-5.4 47.45-6.85L47.45-6.85 48.4-10.95Q48.6-11.95 49.1-14.18 49.6-16.4 49.9-17.6L49.9-17.6Q48.5-19 46.5-19L46.5-19Q44.95-19 43.7-18.18 42.45-17.35 41.65-16.18 40.85-15 40.65-14.1L40.65-14.1 38.65-5.2Q38.75-3.95 39.65-2.95 40.55-1.95 41.6-1.95L41.6-1.95ZM85.75-12.2Q86.25-12.2 86.47-11.78 86.7-11.35 86.7-10.8L86.7-10.8Q86.7-9 84.8-6.25 82.9-3.5 79.97-1.45 77.05 0.6 74.2 0.6L74.2 0.6Q72.4 0.6 71.42-0.3 70.45-1.2 70.45-3.05L70.45-3.05Q70.45-5.6 71.84-9.98 73.25-14.35 74.4-17.25L74.4-17.25Q74.2-17.55 74-17.55L74-17.55Q73.8-17.55 73.55-17.4L73.55-17.4Q72.65-16.85 70.59-14.95 68.55-13.05 66.59-10.95 64.65-8.85 63.95-7.55L63.95-7.55Q63.15-5.4 62.95-4.83 62.75-4.25 62.55-2.95L62.55-2.95 62.1-0.7Q62.05-0.55 62-0.33 61.95-0.1 61.87-0.05 61.8 0 61.65 0L61.65 0Q61.2 0 60.47-0.1 59.75-0.2 59.75-0.4L59.75-0.4Q59.75-1 60.1-2.35 60.45-3.7 60.8-4.8 61.15-5.9 61.35-6.5L61.35-6.5 61.8-7.9Q63.25-12.9 63.77-15.18 64.3-17.45 64.8-20.25L64.8-20.25Q64.84-20.75 65.5-20.75L65.5-20.75Q65.95-20.75 66.52-20.53 67.09-20.3 67.2-19.9L67.2-19.9Q67-19 66.47-16.85 65.95-14.7 65.2-12.1L65.2-12.1Q68.09-15.35 71.22-18 74.34-20.65 75.4-20.65L75.4-20.65Q75.9-20.65 76.59-20.15 77.3-19.65 77.45-19.2L77.45-19.2Q75.84-14.9 74.4-9.83 72.95-4.75 72.95-3.15L72.95-3.15Q72.95-1.4 74.95-1.4L74.95-1.4Q77.9-1.4 80.92-4.7 83.95-8 85.75-12.2L85.75-12.2ZM112.24-55.4Q116.14-55.4 118.84-53.03 121.54-50.65 121.54-45.85L121.54-45.85Q121.54-45.6 121.34-45.4L121.34-45.4Q119.84-48.9 117.37-50.4 114.89-51.9 111.44-51.9L111.44-51.9Q108.04-51.9 104.52-48.85 100.99-45.8 97.64-40.13 94.29-34.45 91.39-26.7L91.39-26.7Q89.94-22.85 88.84-18.28 87.74-13.7 86.09-6L86.09-6 85.64-3.95Q89.24-8.85 94.59-15.1 99.94-21.35 100.74-21.35L100.74-21.35Q102.39-21.35 103.39-20.35L103.39-20.35Q99.94-17.75 94.94-12.15L94.94-12.15Q95.79-8.85 96.62-6.7 97.44-4.55 98.79-3.03 100.14-1.5 102.14-1.5L102.14-1.5Q103.44-1.5 105.52-3.3 107.59-5.1 109.39-8 111.19-10.9 111.79-14.05L111.79-14.05Q112.24-14.05 112.54-13.48 112.84-12.9 112.84-11.95L112.84-11.95Q112.84-10.3 110.99-7.23 109.14-4.15 106.52-1.78 103.89 0.6 101.49 0.6L101.49 0.6Q98.44 0.6 96.62-1.98 94.79-4.55 92.99-9.9L92.99-9.9Q88.49-4.65 85.59-0.3L85.59-0.3Q84.94 0.7 84.69 0.7L84.69 0.7Q84.29 0.7 83.62 0.08 82.94-0.55 82.89-1L82.89-1Q82.84-2 83.89-7.03 84.94-12.05 86.47-17.9 87.99-23.75 89.24-27.3L89.24-27.3Q94.04-40.8 99.72-48.1 105.39-55.4 112.24-55.4L112.24-55.4ZM137.79-11.55Q138.44-11.55 138.44-10.25L138.44-10.25Q138.44-7.95 136.42-5.4 134.39-2.85 131.52-1.13 128.64 0.6 126.24 0.6L126.24 0.6Q124.29 0.6 123.24-0.6 122.19-1.8 121.99-3.7L121.99-3.7Q120.74-1.9 118.84-0.75 116.94 0.4 115.44 0.4L115.44 0.4Q114.14 0.4 112.87-0.48 111.59-1.35 110.79-2.63 109.99-3.9 109.94-5.05L109.94-5.05 112.39-15.15Q112.69-16.35 113.92-17.73 115.14-19.1 116.89-20 118.64-20.9 120.44-20.9L120.44-20.9Q122.74-20.9 124.49-19.35L124.49-19.35Q124.94-20.55 125.17-20.85 125.39-21.15 125.84-21.2L125.84-21.2 128.29-21.45 128.44-21.35Q127.44-20.55 126.99-18.85L126.99-18.85Q125.44-13.05 124.87-10.3 124.29-7.55 124.29-5.45L124.29-5.45Q124.29-3.35 124.84-2.38 125.39-1.4 126.69-1.4L126.69-1.4Q128.29-1.4 130.52-2.7 132.74-4 134.74-6.33 136.74-8.65 137.79-11.55L137.79-11.55ZM115.64-1.95Q116.49-1.95 117.72-2.55 118.94-3.15 120.02-4.28 121.09-5.4 121.49-6.85L121.49-6.85 122.44-10.95Q122.64-11.95 123.14-14.18 123.64-16.4 123.94-17.6L123.94-17.6Q122.54-19 120.54-19L120.54-19Q118.99-19 117.74-18.18 116.49-17.35 115.69-16.18 114.89-15 114.69-14.1L114.69-14.1 112.69-5.2Q112.79-3.95 113.69-2.95 114.59-1.95 115.64-1.95L115.64-1.95ZM152.84 0.4Q152.09 0.4 151.76 0.15 151.44-0.1 151.44-0.9L151.44-0.9Q151.44-3.4 155.09-18L155.09-18Q156.24-22.75 157.19-26.95 158.14-31.15 158.14-32.2L158.14-32.2Q158.14-32.7 157.91-32.88 157.69-33.05 157.09-33.05L157.09-33.05Q156.49-33.05 153.69-32.75L153.69-32.75Q149.64-32.3 148.29-32.3L148.29-32.3Q147.19-32.3 146.71-32.55 146.24-32.8 146.24-33.5L146.24-33.5Q146.24-34.6 146.64-35.8L146.64-35.8Q147.84-35.05 148.74-34.88 149.64-34.7 151.44-34.7L151.44-34.7Q154.84-34.7 160.54-35.3L160.54-35.3Q165.34-35.8 167.04-35.8L167.04-35.8Q172.14-35.8 175.09-33.5 178.04-31.2 178.04-26.5L178.04-26.5Q178.04-23.3 176.59-20.6 175.14-17.9 172.11-16.28 169.09-14.65 164.59-14.65L164.59-14.65Q162.19-14.65 160.89-15.13 159.59-15.6 159.59-16.5L159.59-16.5Q159.59-17.05 159.99-17.35L159.99-17.35Q160.59-17.15 161.89-16.98 163.19-16.8 164.49-16.8L164.49-16.8Q167.64-16.8 170.09-18.03 172.54-19.25 173.86-21.43 175.19-23.6 175.19-26.4L175.19-26.4Q175.19-30.05 172.81-31.78 170.44-33.5 165.59-33.5L165.59-33.5Q163.14-33.5 162.06-33.08 160.99-32.65 160.69-31.7L160.69-31.7Q160.19-30.35 158.61-23.43 157.04-16.5 155.74-9.8 154.44-3.1 154.44-1.15L154.44-1.15Q154.44-0.4 154.64 0.2L154.64 0.2Q153.84 0.4 152.84 0.4L152.84 0.4ZM201.88-14Q202.38-14 202.68-13.53 202.98-13.05 202.98-12.35L202.98-12.35Q202.98-11.45 202.48-10.45L202.48-10.45Q201.08-7.5 198.48-5.03 195.88-2.55 192.86-1.1 189.83 0.35 187.23 0.35L187.23 0.35Q181.93 0.35 181.93-5.8L181.93-5.8Q181.93-10.1 184.28-19.63 186.63-29.15 191.08-44.9L191.08-44.9Q192.03-48.15 193.16-49.7 194.28-51.25 195.73-51.25L195.73-51.25Q196.78-51.25 197.76-50.53 198.73-49.8 199.38-48.3 200.03-46.8 200.03-44.6L200.03-44.6Q200.03-41.05 198.36-35.6 196.68-30.15 193.33-24.1 189.98-18.05 185.28-12.9L185.28-12.9Q184.43-8.5 184.43-6.35L184.43-6.35Q184.43-3.95 185.41-2.93 186.38-1.9 188.13-1.9L188.13-1.9Q190.58-1.9 193.36-3.55 196.13-5.2 198.43-8 200.73-10.8 201.88-14L201.88-14ZM192.38-41.75Q188.18-26.65 186.03-16.7L186.03-16.7Q189.73-21.35 192.41-26.85 195.08-32.35 196.41-37.15 197.73-41.95 197.73-44.7L197.73-44.7Q197.73-46.25 197.28-47.38 196.83-48.5 195.78-48.5L195.78-48.5Q195.18-48.5 194.36-47.25 193.53-46 192.38-41.75L192.38-41.75ZM227.98-11.55Q228.63-11.55 228.63-10.25L228.63-10.25Q228.63-7.95 226.61-5.4 224.58-2.85 221.71-1.13 218.83 0.6 216.43 0.6L216.43 0.6Q214.48 0.6 213.43-0.6 212.38-1.8 212.18-3.7L212.18-3.7Q210.93-1.9 209.03-0.75 207.13 0.4 205.63 0.4L205.63 0.4Q204.33 0.4 203.06-0.48 201.78-1.35 200.98-2.63 200.18-3.9 200.13-5.05L200.13-5.05 202.58-15.15Q202.88-16.35 204.11-17.73 205.33-19.1 207.08-20 208.83-20.9 210.63-20.9L210.63-20.9Q212.93-20.9 214.68-19.35L214.68-19.35Q215.13-20.55 215.36-20.85 215.58-21.15 216.03-21.2L216.03-21.2 218.48-21.45 218.63-21.35Q217.63-20.55 217.18-18.85L217.18-18.85Q215.63-13.05 215.06-10.3 214.48-7.55 214.48-5.45L214.48-5.45Q214.48-3.35 215.03-2.38 215.58-1.4 216.88-1.4L216.88-1.4Q218.48-1.4 220.71-2.7 222.93-4 224.93-6.33 226.93-8.65 227.98-11.55L227.98-11.55ZM205.83-1.95Q206.68-1.95 207.91-2.55 209.13-3.15 210.21-4.28 211.28-5.4 211.68-6.85L211.68-6.85 212.63-10.95Q212.83-11.95 213.33-14.18 213.83-16.4 214.13-17.6L214.13-17.6Q212.73-19 210.73-19L210.73-19Q209.18-19 207.93-18.18 206.68-17.35 205.88-16.18 205.08-15 204.88-14.1L204.88-14.1 202.88-5.2Q202.98-3.95 203.88-2.95 204.78-1.95 205.83-1.95L205.83-1.95ZM249.98-12.2Q250.48-12.2 250.7-11.78 250.93-11.35 250.93-10.8L250.93-10.8Q250.93-9 249.03-6.25 247.13-3.5 244.2-1.45 241.28 0.6 238.43 0.6L238.43 0.6Q236.63 0.6 235.65-0.3 234.68-1.2 234.68-3.05L234.68-3.05Q234.68-5.6 236.08-9.98 237.48-14.35 238.63-17.25L238.63-17.25Q238.43-17.55 238.23-17.55L238.23-17.55Q238.03-17.55 237.78-17.4L237.78-17.4Q236.88-16.85 234.83-14.95 232.78-13.05 230.83-10.95 228.88-8.85 228.18-7.55L228.18-7.55Q227.38-5.4 227.18-4.83 226.98-4.25 226.78-2.95L226.78-2.95 226.33-0.7Q226.28-0.55 226.23-0.33 226.18-0.1 226.1-0.05 226.03 0 225.88 0L225.88 0Q225.43 0 224.7-0.1 223.98-0.2 223.98-0.4L223.98-0.4Q223.98-1 224.33-2.35 224.68-3.7 225.03-4.8 225.38-5.9 225.58-6.5L225.58-6.5 226.03-7.9Q227.48-12.9 228-15.18 228.53-17.45 229.03-20.25L229.03-20.25Q229.08-20.75 229.73-20.75L229.73-20.75Q230.18-20.75 230.75-20.53 231.33-20.3 231.43-19.9L231.43-19.9Q231.23-19 230.7-16.85 230.18-14.7 229.43-12.1L229.43-12.1Q232.33-15.35 235.45-18 238.58-20.65 239.63-20.65L239.63-20.65Q240.13-20.65 240.83-20.15 241.53-19.65 241.68-19.2L241.68-19.2Q240.08-14.9 238.63-9.83 237.18-4.75 237.18-3.15L237.18-3.15Q237.18-1.4 239.18-1.4L239.18-1.4Q242.13-1.4 245.15-4.7 248.18-8 249.98-12.2L249.98-12.2ZM269.03-11.95Q269.93-11.8 269.93-10.95L269.93-10.95Q269.93-8.95 267.35-6.28 264.78-3.6 261.28-1.68 257.78 0.25 255.43 0.25L255.43 0.25Q253.18 0.25 251.53-0.93 249.88-2.1 249-3.55 248.13-5 248.13-5.7L248.13-5.7Q248.93-8.55 249.88-13.6L249.88-13.6 250.43-16.4Q250.63-17.4 251.88-18.48 253.13-19.55 254.68-20.28 256.23-21 257.18-21L257.18-21Q257.93-21 259-20.53 260.08-20.05 260.9-19.05 261.73-18.05 261.73-16.5L261.73-16.5Q261.73-14.7 260.53-13.1 259.33-11.5 256.98-10.5 254.63-9.5 251.33-9.5L251.33-9.5 250.63-6.15Q250.63-5.7 251.15-4.65 251.68-3.6 252.85-2.75 254.03-1.9 255.83-1.9L255.83-1.9Q258.23-1.9 260.88-3.48 263.53-5.05 265.73-7.4 267.93-9.75 269.03-11.95L269.03-11.95ZM256.78-18.95Q256.18-18.95 255.23-18.45 254.28-17.95 253.5-17.2 252.73-16.45 252.58-15.8L252.58-15.8Q252.08-13.55 251.68-11.25L251.68-11.25Q255.53-11.4 257.48-12.78 259.43-14.15 259.43-15.9L259.43-15.9Q259.43-17.15 258.53-18.05 257.63-18.95 256.78-18.95L256.78-18.95ZM286.22-8.3Q286.47-7.95 286.47-7.45L286.47-7.45Q286.47-7.05 286.32-6.75 286.17-6.45 285.82-6L285.82-6Q284.52-4.45 282.2-2.93 279.87-1.4 277.32-0.45 274.77 0.5 272.87 0.5L272.87 0.5Q270.72 0.5 269.3-0.83 267.87-2.15 267.87-4.8L267.87-4.8Q267.87-8.15 270.27-17.4L270.27-17.4 264.97-17.2Q264.87-17.25 264.7-17.38 264.52-17.5 264.47-17.6L264.47-17.6Q264.62-17.85 265.02-18.6 265.42-19.35 265.72-19.65L265.72-19.65 270.87-19.6Q272.52-25.7 274.67-32.15L274.67-32.15Q275.57-32.85 276.97-33.68 278.37-34.5 278.67-34.5L278.67-34.5Q279.12-34.3 279.22-33.95L279.22-33.95Q278.32-33.6 277.82-33.02 277.32-32.45 276.82-31.15L276.82-31.15Q275.37-27.45 273.32-19.6L273.32-19.6 286.07-19.55 286.12-18.75Q286.12-18.35 285.97-18.2 285.82-18.05 285.27-18L285.27-18Q284.57-17.95 272.77-17.5L272.77-17.5Q270.47-8.1 270.47-4.95L270.47-4.95Q270.47-3.2 271.32-2.38 272.17-1.55 273.92-1.55L273.92-1.55Q279.02-1.55 286.22-8.3L286.22-8.3Z" opacity="1" transform="matrix(1,0,0,1,0,0)" fill="#000000" class="wordmark-text-0" data-fill-palette-color="quaternary" id="text-0"></path></svg></g></svg></g><g transform="matrix(1,0,0,1,0,52.49445727998108)"><svg viewBox="0 0 213.1584412271571 16.143244359392153" height="16.143244359392153" width="213.1584412271571"><g transform="matrix(1,0,0,1,0,0)"><svg width="213.1584412271571" viewBox="0.6000000238418579 -36.5 630.4400024414062 47.75" height="16.143244359392153" data-palette-color="#ffffff"><path d="M0.6-1.65L1.75-5.3Q2.7-4.65 4.38-4.08 6.05-3.5 8.35-3.5L8.35-3.5Q10.7-3.5 12.2-4.28 13.7-5.05 14.5-6.63 15.3-8.2 15.6-10.65 15.9-13.1 15.9-16.45L15.9-16.45 15.9-35.5 20.4-35.5 20.4-17.45Q20.4-13.5 20-10.2 19.6-6.9 18.4-4.48 17.2-2.05 14.83-0.75 12.45 0.55 8.5 0.55L8.5 0.55Q6 0.55 4.1 0 2.2-0.55 0.6-1.65L0.6-1.65ZM38.75 0.5L38.75 0.5Q35.8 0.5 33.4-0.58 31-1.65 29.25-3.53 27.5-5.4 26.55-7.85 25.6-10.3 25.6-13L25.6-13Q25.6-15.75 26.55-18.2 27.5-20.65 29.25-22.53 31-24.4 33.42-25.48 35.85-26.55 38.8-26.55L38.8-26.55Q41.7-26.55 44.1-25.48 46.5-24.4 48.27-22.53 50.05-20.65 51-18.2 51.95-15.75 51.95-13L51.95-13Q51.95-10.3 51-7.85 50.05-5.4 48.3-3.53 46.55-1.65 44.12-0.58 41.7 0.5 38.75 0.5ZM30.1-12.95L30.1-12.95Q30.1-10.25 31.27-8.05 32.45-5.85 34.4-4.58 36.35-3.3 38.75-3.3L38.75-3.3Q41.15-3.3 43.12-4.6 45.1-5.9 46.27-8.13 47.45-10.35 47.45-13.05L47.45-13.05Q47.45-15.75 46.27-17.95 45.1-20.15 43.12-21.45 41.15-22.75 38.75-22.75L38.75-22.75Q36.35-22.75 34.4-21.43 32.45-20.1 31.27-17.9 30.1-15.7 30.1-12.95ZM57.05-10.45L57.05-10.45 57.05-26.1 61.45-26.1 61.45-11.3Q61.45-7.3 62.85-5.3 64.25-3.3 67-3.3L67-3.3Q68.8-3.3 70.47-4.08 72.15-4.85 73.5-6.3 74.84-7.75 75.59-9.75L75.59-9.75 75.59-26.1 80-26.1 80-5Q80-4.2 80.32-3.83 80.65-3.45 81.4-3.4L81.4-3.4 81.4 0Q80.65 0.1 80.22 0.13 79.8 0.15 79.4 0.15L79.4 0.15Q78.15 0.15 77.25-0.63 76.34-1.4 76.3-2.55L76.3-2.55 76.2-5.6Q74.5-2.7 71.62-1.1 68.75 0.5 65.34 0.5L65.34 0.5Q61.25 0.5 59.15-2.27 57.05-5.05 57.05-10.45ZM101.14-26.25L101.14-22.25Q97.84-22.2 95.32-20.58 92.79-18.95 91.74-16.1L91.74-16.1 91.74 0 87.34 0 87.34-26.1 91.44-26.1 91.44-20.05Q92.79-22.75 95.02-24.43 97.24-26.1 99.69-26.3L99.69-26.3Q100.19-26.3 100.54-26.3 100.89-26.3 101.14-26.25L101.14-26.25ZM128.14-15.6L128.14 0 123.74 0 123.74-14.6Q123.74-18.75 122.47-20.68 121.19-22.6 118.59-22.6L118.59-22.6Q116.79-22.6 115.02-21.7 113.24-20.8 111.87-19.28 110.49-17.75 109.89-15.75L109.89-15.75 109.89 0 105.49 0 105.49-26.1 109.49-26.1 109.49-20.5Q110.54-22.35 112.19-23.7 113.84-25.05 115.94-25.8 118.04-26.55 120.34-26.55L120.34-26.55Q122.59-26.55 124.12-25.73 125.64-24.9 126.52-23.43 127.39-21.95 127.77-19.95 128.14-17.95 128.14-15.6L128.14-15.6ZM146.54 0.5L146.54 0.5Q143.59 0.5 141.16-0.58 138.74-1.65 136.96-3.53 135.19-5.4 134.21-7.85 133.24-10.3 133.24-13.05L133.24-13.05Q133.24-16.75 134.94-19.8 136.64-22.85 139.66-24.7 142.69-26.55 146.59-26.55L146.59-26.55Q150.54-26.55 153.46-24.68 156.39-22.8 158.01-19.78 159.64-16.75 159.64-13.25L159.64-13.25Q159.64-12.75 159.61-12.28 159.59-11.8 159.54-11.55L159.54-11.55 137.89-11.55Q138.09-9 139.31-7.03 140.54-5.05 142.49-3.93 144.44-2.8 146.69-2.8L146.69-2.8Q149.09-2.8 151.21-4 153.34-5.2 154.14-7.15L154.14-7.15 157.94-6.1Q157.09-4.2 155.41-2.7 153.74-1.2 151.46-0.35 149.19 0.5 146.54 0.5ZM137.74-14.6L137.74-14.6 155.54-14.6Q155.34-17.15 154.09-19.1 152.84-21.05 150.89-22.15 148.94-23.25 146.59-23.25L146.59-23.25Q144.29-23.25 142.34-22.15 140.39-21.05 139.16-19.1 137.94-17.15 137.74-14.6ZM164.99 11L164.99 7.1Q165.64 7.15 166.29 7.23 166.94 7.3 167.29 7.3L167.29 7.3Q168.09 7.3 168.69 6.75 169.29 6.2 170.01 4.63 170.74 3.05 171.89 0L171.89 0 160.84-26.1 165.49-26.1 174.29-4.45 182.24-26.1 186.59-26.1 173.89 6.85Q173.44 8 172.56 9.03 171.69 10.05 170.34 10.65 168.99 11.25 167.09 11.25L167.09 11.25Q166.64 11.25 166.16 11.2 165.69 11.15 164.99 11L164.99 11ZM207.53-4L227.13-4 227.13 0 203.03 0 203.03-35.5 226.68-35.5 226.68-31.5 207.53-31.5 207.53-20 224.18-20 224.18-16.25 207.53-16.25 207.53-4ZM229.68-26.1L234.53-26.1 241.43-16.5 241.83-15.7 242.28-16.5 249.13-26.1 254.03-26.1 244.38-13 254.08 0 249.18 0 242.28-9.55 241.83-10.3 241.43-9.55 234.53 0 229.63 0 239.33-13 229.68-26.1ZM272.28 0.5L272.28 0.5Q269.08 0.5 266.58-1.1 264.08-2.7 262.63-5.15L262.63-5.15 262.63 10.65 258.23 10.65 258.23-26.1 262.13-26.1 262.13-21.2Q263.68-23.6 266.18-25.08 268.68-26.55 271.63-26.55L271.63-26.55Q274.33-26.55 276.58-25.45 278.83-24.35 280.48-22.45 282.13-20.55 283.05-18.13 283.98-15.7 283.98-13.05L283.98-13.05Q283.98-9.35 282.5-6.25 281.03-3.15 278.38-1.33 275.73 0.5 272.28 0.5ZM270.93-3.3L270.93-3.3Q272.88-3.3 274.45-4.13 276.03-4.95 277.15-6.33 278.28-7.7 278.88-9.45 279.48-11.2 279.48-13.05L279.48-13.05Q279.48-15 278.8-16.75 278.13-18.5 276.9-19.85 275.68-21.2 274.05-21.98 272.43-22.75 270.53-22.75L270.53-22.75Q269.33-22.75 268.05-22.3 266.78-21.85 265.63-21.03 264.48-20.2 263.68-19.15 262.88-18.1 262.63-16.9L262.63-16.9 262.63-9.45Q263.38-7.75 264.63-6.35 265.88-4.95 267.53-4.13 269.18-3.3 270.93-3.3ZM289.47-5.15L289.47-36.5 293.87-36.5 293.87-6.75Q293.87-4.6 294.47-4.1 295.07-3.6 295.92-3.6L295.92-3.6Q296.97-3.6 297.92-3.83 298.87-4.05 299.52-4.3L299.52-4.3 300.22-0.7Q299.12-0.25 297.62 0.05 296.12 0.35 294.97 0.35L294.97 0.35Q292.42 0.35 290.95-1.1 289.47-2.55 289.47-5.15L289.47-5.15ZM315.07 0.5L315.07 0.5Q312.12 0.5 309.72-0.58 307.32-1.65 305.57-3.53 303.82-5.4 302.87-7.85 301.92-10.3 301.92-13L301.92-13Q301.92-15.75 302.87-18.2 303.82-20.65 305.57-22.53 307.32-24.4 309.75-25.48 312.17-26.55 315.12-26.55L315.12-26.55Q318.02-26.55 320.42-25.48 322.82-24.4 324.6-22.53 326.37-20.65 327.32-18.2 328.27-15.75 328.27-13L328.27-13Q328.27-10.3 327.32-7.85 326.37-5.4 324.62-3.53 322.87-1.65 320.45-0.58 318.02 0.5 315.07 0.5ZM306.42-12.95L306.42-12.95Q306.42-10.25 307.6-8.05 308.77-5.85 310.72-4.58 312.67-3.3 315.07-3.3L315.07-3.3Q317.47-3.3 319.45-4.6 321.42-5.9 322.6-8.13 323.77-10.35 323.77-13.05L323.77-13.05Q323.77-15.75 322.6-17.95 321.42-20.15 319.45-21.45 317.47-22.75 315.07-22.75L315.07-22.75Q312.67-22.75 310.72-21.43 308.77-20.1 307.6-17.9 306.42-15.7 306.42-12.95ZM347.42-26.25L347.42-22.25Q344.12-22.2 341.59-20.58 339.07-18.95 338.02-16.1L338.02-16.1 338.02 0 333.62 0 333.62-26.1 337.72-26.1 337.72-20.05Q339.07-22.75 341.29-24.43 343.52-26.1 345.97-26.3L345.97-26.3Q346.47-26.3 346.82-26.3 347.17-26.3 347.42-26.25L347.42-26.25ZM362.72 0.5L362.72 0.5Q359.76 0.5 357.34-0.58 354.92-1.65 353.14-3.53 351.37-5.4 350.39-7.85 349.42-10.3 349.42-13.05L349.42-13.05Q349.42-16.75 351.12-19.8 352.81-22.85 355.84-24.7 358.87-26.55 362.76-26.55L362.76-26.55Q366.72-26.55 369.64-24.68 372.56-22.8 374.19-19.78 375.81-16.75 375.81-13.25L375.81-13.25Q375.81-12.75 375.79-12.28 375.76-11.8 375.72-11.55L375.72-11.55 354.06-11.55Q354.26-9 355.49-7.03 356.72-5.05 358.67-3.93 360.62-2.8 362.87-2.8L362.87-2.8Q365.26-2.8 367.39-4 369.51-5.2 370.31-7.15L370.31-7.15 374.12-6.1Q373.26-4.2 371.59-2.7 369.92-1.2 367.64-0.35 365.37 0.5 362.72 0.5ZM353.92-14.6L353.92-14.6 371.72-14.6Q371.51-17.15 370.26-19.1 369.01-21.05 367.06-22.15 365.12-23.25 362.76-23.25L362.76-23.25Q360.47-23.25 358.51-22.15 356.56-21.05 355.34-19.1 354.12-17.15 353.92-14.6ZM388.76 0L403.31-35.5 407.11-35.5 421.61 0 416.81 0 412.61-10.4 397.71-10.4 393.56 0 388.76 0ZM398.61-13.9L411.61-13.9 405.21-30.3 398.61-13.9ZM423.21-13L423.21-13Q423.21-16.7 424.73-19.78 426.26-22.85 428.93-24.7 431.61-26.55 435.06-26.55L435.06-26.55Q438.21-26.55 440.71-24.9 443.21-23.25 444.61-20.9L444.61-20.9 444.61-36.5 449.01-36.5 449.01-5Q449.01-4.2 449.33-3.83 449.66-3.45 450.41-3.4L450.41-3.4 450.41 0Q449.16 0.2 448.46 0.2L448.46 0.2Q447.16 0.2 446.18-0.7 445.21-1.6 445.21-2.7L445.21-2.7 445.21-4.9Q443.66-2.4 441.06-0.95 438.46 0.5 435.66 0.5L435.66 0.5Q432.96 0.5 430.68-0.58 428.41-1.65 426.73-3.55 425.06-5.45 424.13-7.88 423.21-10.3 423.21-13ZM444.61-9.15L444.61-9.15 444.61-16.65Q444.01-18.35 442.66-19.73 441.31-21.1 439.63-21.93 437.96-22.75 436.31-22.75L436.31-22.75Q434.36-22.75 432.78-21.93 431.21-21.1 430.08-19.73 428.96-18.35 428.36-16.6 427.76-14.85 427.76-12.95L427.76-12.95Q427.76-11 428.43-9.25 429.11-7.5 430.33-6.15 431.56-4.8 433.18-4.05 434.81-3.3 436.71-3.3L436.71-3.3Q437.91-3.3 439.18-3.75 440.46-4.2 441.61-5 442.76-5.8 443.56-6.88 444.36-7.95 444.61-9.15ZM468.66 0L463.86 0 453.61-26.1 458.2-26.1 466.41-4.2 474.61-26.1 478.91-26.1 468.66 0ZM493.95 0.5L493.95 0.5Q491 0.5 488.58-0.58 486.15-1.65 484.38-3.53 482.6-5.4 481.63-7.85 480.65-10.3 480.65-13.05L480.65-13.05Q480.65-16.75 482.35-19.8 484.05-22.85 487.08-24.7 490.1-26.55 494-26.55L494-26.55Q497.95-26.55 500.88-24.68 503.8-22.8 505.43-19.78 507.05-16.75 507.05-13.25L507.05-13.25Q507.05-12.75 507.03-12.28 507-11.8 506.95-11.55L506.95-11.55 485.3-11.55Q485.5-9 486.73-7.03 487.95-5.05 489.9-3.93 491.85-2.8 494.1-2.8L494.1-2.8Q496.5-2.8 498.63-4 500.75-5.2 501.55-7.15L501.55-7.15 505.35-6.1Q504.5-4.2 502.83-2.7 501.15-1.2 498.88-0.35 496.6 0.5 493.95 0.5ZM485.15-14.6L485.15-14.6 502.95-14.6Q502.75-17.15 501.5-19.1 500.25-21.05 498.3-22.15 496.35-23.25 494-23.25L494-23.25Q491.7-23.25 489.75-22.15 487.8-21.05 486.58-19.1 485.35-17.15 485.15-14.6ZM534.6-15.6L534.6 0 530.2 0 530.2-14.6Q530.2-18.75 528.93-20.68 527.65-22.6 525.05-22.6L525.05-22.6Q523.25-22.6 521.48-21.7 519.7-20.8 518.33-19.28 516.95-17.75 516.35-15.75L516.35-15.75 516.35 0 511.95 0 511.95-26.1 515.95-26.1 515.95-20.5Q517-22.35 518.65-23.7 520.3-25.05 522.4-25.8 524.5-26.55 526.8-26.55L526.8-26.55Q529.05-26.55 530.58-25.73 532.1-24.9 532.98-23.43 533.85-21.95 534.23-19.95 534.6-17.95 534.6-15.6L534.6-15.6ZM553.65-4.8L554.7-1.3Q554.15-1.05 553.2-0.65 552.25-0.25 551 0.05 549.75 0.35 548.35 0.35L548.35 0.35Q546.75 0.35 545.4-0.23 544.05-0.8 543.25-2.02 542.45-3.25 542.45-5.1L542.45-5.1 542.45-22.65 538.9-22.65 538.9-26.1 542.45-26.1 542.45-34.8 546.85-34.8 546.85-26.1 552.7-26.1 552.7-22.65 546.85-22.65 546.85-6.45Q546.95-5.05 547.8-4.38 548.65-3.7 549.8-3.7L549.8-3.7Q551.1-3.7 552.2-4.15 553.3-4.6 553.65-4.8L553.65-4.8ZM558.54-10.45L558.54-10.45 558.54-26.1 562.95-26.1 562.95-11.3Q562.95-7.3 564.35-5.3 565.75-3.3 568.5-3.3L568.5-3.3Q570.29-3.3 571.97-4.08 573.64-4.85 575-6.3 576.35-7.75 577.1-9.75L577.1-9.75 577.1-26.1 581.5-26.1 581.5-5Q581.5-4.2 581.82-3.83 582.14-3.45 582.89-3.4L582.89-3.4 582.89 0Q582.14 0.1 581.72 0.13 581.29 0.15 580.89 0.15L580.89 0.15Q579.64 0.15 578.75-0.63 577.85-1.4 577.79-2.55L577.79-2.55 577.7-5.6Q576-2.7 573.12-1.1 570.25 0.5 566.85 0.5L566.85 0.5Q562.75 0.5 560.64-2.27 558.54-5.05 558.54-10.45ZM602.64-26.25L602.64-22.25Q599.34-22.2 596.82-20.58 594.29-18.95 593.24-16.1L593.24-16.1 593.24 0 588.84 0 588.84-26.1 592.94-26.1 592.94-20.05Q594.29-22.75 596.52-24.43 598.74-26.1 601.19-26.3L601.19-26.3Q601.69-26.3 602.04-26.3 602.39-26.3 602.64-26.25L602.64-26.25ZM617.94 0.5L617.94 0.5Q614.99 0.5 612.56-0.58 610.14-1.65 608.36-3.53 606.59-5.4 605.61-7.85 604.64-10.3 604.64-13.05L604.64-13.05Q604.64-16.75 606.34-19.8 608.04-22.85 611.06-24.7 614.09-26.55 617.99-26.55L617.99-26.55Q621.94-26.55 624.86-24.68 627.79-22.8 629.41-19.78 631.04-16.75 631.04-13.25L631.04-13.25Q631.04-12.75 631.01-12.28 630.99-11.8 630.94-11.55L630.94-11.55 609.29-11.55Q609.49-9 610.71-7.03 611.94-5.05 613.89-3.93 615.84-2.8 618.09-2.8L618.09-2.8Q620.49-2.8 622.61-4 624.74-5.2 625.54-7.15L625.54-7.15 629.34-6.1Q628.49-4.2 626.81-2.7 625.14-1.2 622.86-0.35 620.59 0.5 617.94 0.5ZM609.14-14.6L609.14-14.6 626.94-14.6Q626.74-17.15 625.49-19.1 624.24-21.05 622.29-22.15 620.34-23.25 617.99-23.25L617.99-23.25Q615.69-23.25 613.74-22.15 611.79-21.05 610.56-19.1 609.34-17.15 609.14-14.6Z" opacity="1" transform="matrix(1,0,0,1,0,0)" fill="#000000" class="slogan-text-1" data-fill-palette-color="quaternary" id="text-1"></path></svg></g></svg></g></svg></g></svg></g><g transform="matrix(1,0,0,1,55.539109920100714,0)"><svg viewBox="0 0 102.08022138695569 94.85730366561381" height="94.85730366561381" width="102.08022138695569"><g><svg xmlns="http://www.w3.org/2000/svg" xmlns:xlink="http://www.w3.org/1999/xlink" version="1.1" x="0" y="0" viewBox="0.5879993438720703 3.642998695373535 90.125 83.74800109863281" enable-background="new 0 0 91 91" xml:space="preserve" height="94.85730366561381" width="102.08022138695569" class="icon-icon-0" data-fill-palette-color="quaternary" id="icon-0"><g fill="#ffffff" data-fill-palette-color="quaternary"><path d="M16.678 47.9c-3.934 0-7.134 3.203-7.134 7.139s3.2 7.137 7.134 7.137c3.936 0 7.139-3.201 7.139-7.137S20.613 47.9 16.678 47.9zM16.678 57.15c-1.162 0-2.108-0.947-2.108-2.111 0-1.166 0.946-2.113 2.108-2.113 1.165 0 2.113 0.947 2.113 2.113C18.791 56.203 17.843 57.15 16.678 57.15z" fill="#000000" data-fill-palette-color="quaternary"></path><path d="M65.583 12.278c-1.615 0-2.93 1.311-2.93 2.922 0 1.613 1.314 2.926 2.93 2.926 1.608 0 2.919-1.313 2.919-2.926C68.502 13.589 67.191 12.278 65.583 12.278z" fill="#000000" data-fill-palette-color="quaternary"></path><path d="M88.2 65.236H45.04v-8.617h31.162c1.388 0 2.513-1.125 2.513-2.514V37.771c0-1.388-1.125-2.513-2.513-2.513h-8.111v-5.007c2.487-2.684 8.918-10.113 8.918-15.185 0-6.298-5.126-11.423-11.426-11.423-6.304 0-11.433 5.125-11.433 11.423 0 5.065 6.419 12.481 8.915 15.175v7.529c0 1.388 1.125 2.513 2.513 2.513h8.111v11.311H42.527c-1.388 0-2.513 1.125-2.513 2.512V67.75c0 1.387 1.125 2.512 2.513 2.512h43.16v12.104H19.193v-4.412C22.27 74.654 32.77 62.85 32.77 55.361c0-8.872-7.217-16.089-16.089-16.089-8.873 0-16.093 7.217-16.093 16.089 0 7.488 10.502 19.293 13.58 22.592v6.924c0 1.389 1.125 2.514 2.513 2.514H88.2c1.388 0 2.513-1.125 2.513-2.514V67.75C90.713 66.361 89.588 65.236 88.2 65.236zM59.176 15.066c0-3.528 2.874-6.397 6.407-6.397 3.529 0 6.4 2.869 6.4 6.397 0 2.208-3.364 6.937-6.401 10.45C62.542 22.006 59.176 17.279 59.176 15.066zM5.613 55.361c0-6.1 4.965-11.063 11.067-11.063 6.101 0 11.063 4.964 11.063 11.063 0 4.178-6.189 12.465-11.063 17.898C11.806 67.826 5.613 59.539 5.613 55.361z" fill="#000000" data-fill-palette-color="quaternary"></path></g></svg></g></svg></g><g></g></svg></g></svg></g></svg></g></svg></g><defs></defs></svg><rect width="342.85155851775386" height="342.85155851775386" fill="none" stroke="none" visibility="hidden"></rect></g></svg></g></svg>